<svg xmlns="http://www.w3.org/2000/svg" viewBox="0 0 512 512">
  <defs>
    <linearGradient id="bg" x1="0%" y1="0%" x2="100%" y2="100%">
      <stop offset="0%" stop-color="#2D9B6E"/>
      <stop offset="50%" stop-color="#E85D75"/>
      <stop offset="100%" stop-color="#2D9B6E"/>
    </linearGradient>
    <clipPath id="circle">
      <circle cx="256" cy="256" r="256"/>
    </clipPath>
  </defs>
  <g clip-path="url(#circle)">
    <rect width="512" height="512" fill="url(#bg)"/>
    <!-- Kurdish Sun — 21 rays -->
    <g transform="translate(256, 256)">
      <g>
        <line x1="0" y1="-75" x2="0" y2="-130" stroke="#F5A623" stroke-width="10" stroke-linecap="round"/>
        <line x1="36" y1="-66" x2="62" y2="-115" stroke="#F5A623" stroke-width="10" stroke-linecap="round"/>
        <line x1="66" y1="-36" x2="115" y2="-62" stroke="#F5A623" stroke-width="10" stroke-linecap="round"/>
        <line x1="75" y1="0" x2="130" y2="0" stroke="#F5A623" stroke-width="10" stroke-linecap="round"/>
        <line x1="66" y1="36" x2="115" y2="62" stroke="#F5A623" stroke-width="10" stroke-linecap="round"/>
        <line x1="36" y1="66" x2="62" y2="115" stroke="#F5A623" stroke-width="10" stroke-linecap="round"/>
        <line x1="0" y1="75" x2="0" y2="130" stroke="#F5A623" stroke-width="10" stroke-linecap="round"/>
        <line x1="-36" y1="66" x2="-62" y2="115" stroke="#F5A623" stroke-width="10" stroke-linecap="round"/>
        <line x1="-66" y1="36" x2="-115" y2="62" stroke="#F5A623" stroke-width="10" stroke-linecap="round"/>
        <line x1="-75" y1="0" x2="-130" y2="0" stroke="#F5A623" stroke-width="10" stroke-linecap="round"/>
        <line x1="-66" y1="-36" x2="-115" y2="-62" stroke="#F5A623" stroke-width="10" stroke-linecap="round"/>
        <line x1="-36" y1="-66" x2="-62" y2="-115" stroke="#F5A623" stroke-width="10" stroke-linecap="round"/>
        <!-- Extra rays for 21 -->
        <line x1="18" y1="-73" x2="31" y2="-125" stroke="#F5A623" stroke-width="8" stroke-linecap="round"/>
        <line x1="53" y1="-53" x2="92" y2="-92" stroke="#F5A623" stroke-width="8" stroke-linecap="round"/>
        <line x1="73" y1="-18" x2="125" y2="-31" stroke="#F5A623" stroke-width="8" stroke-linecap="round"/>
        <line x1="73" y1="18" x2="125" y2="31" stroke="#F5A623" stroke-width="8" stroke-linecap="round"/>
        <line x1="53" y1="53" x2="92" y2="92" stroke="#F5A623" stroke-width="8" stroke-linecap="round"/>
        <line x1="18" y1="73" x2="31" y2="125" stroke="#F5A623" stroke-width="8" stroke-linecap="round"/>
        <line x1="-18" y1="73" x2="-31" y2="125" stroke="#F5A623" stroke-width="8" stroke-linecap="round"/>
        <line x1="-53" y1="53" x2="-92" y2="92" stroke="#F5A623" stroke-width="8" stroke-linecap="round"/>
        <line x1="-73" y1="18" x2="-125" y2="31" stroke="#F5A623" stroke-width="8" stroke-linecap="round"/>
      </g>
      <circle cx="0" cy="0" r="65" fill="#F5A623"/>
      <circle cx="0" cy="0" r="55" fill="#FACB75"/>
    </g>
  </g>
</svg>
